<mxfile host="Electron" agent="Mozilla/5.0 (Windows NT 10.0; Win64; x64) AppleWebKit/537.36 (KHTML, like Gecko) draw.io/24.7.8 Chrome/128.0.6613.36 Electron/32.0.1 Safari/537.36" version="24.7.8" pages="3">
  <diagram name="202408017" id="_qTMZ9agV6DyS4d2ZqxH">
    <mxGraphModel dx="1918" dy="1004" grid="1" gridSize="10" guides="1" tooltips="1" connect="1" arrows="1" fold="1" page="1" pageScale="1" pageWidth="827" pageHeight="1169" math="0" shadow="0">
      <root>
        <mxCell id="0" />
        <mxCell id="1" parent="0" />
        <mxCell id="H0H0fJoh627wvlZ6eN0J-27" value="" style="rounded=0;whiteSpace=wrap;html=1;fillColor=none;" parent="1" vertex="1">
          <mxGeometry x="38" width="1402" height="1050" as="geometry" />
        </mxCell>
        <mxCell id="H0H0fJoh627wvlZ6eN0J-7" style="edgeStyle=orthogonalEdgeStyle;rounded=1;orthogonalLoop=1;jettySize=auto;html=1;curved=0;" parent="1" source="H0H0fJoh627wvlZ6eN0J-1" target="H0H0fJoh627wvlZ6eN0J-3" edge="1">
          <mxGeometry relative="1" as="geometry" />
        </mxCell>
        <mxCell id="H0H0fJoh627wvlZ6eN0J-1" value="__init__()" style="rounded=0;whiteSpace=wrap;html=1;" parent="1" vertex="1">
          <mxGeometry x="160" y="40" width="120" height="60" as="geometry" />
        </mxCell>
        <mxCell id="H0H0fJoh627wvlZ6eN0J-4" style="rounded=0;orthogonalLoop=1;jettySize=auto;html=1;" parent="1" source="H0H0fJoh627wvlZ6eN0J-2" target="H0H0fJoh627wvlZ6eN0J-3" edge="1">
          <mxGeometry relative="1" as="geometry" />
        </mxCell>
        <mxCell id="H0H0fJoh627wvlZ6eN0J-2" value="&amp;lt;DS&amp;gt;&lt;div&gt;param_type_def_file&lt;/div&gt;" style="rounded=0;whiteSpace=wrap;html=1;" parent="1" vertex="1">
          <mxGeometry x="80" y="160" width="120" height="60" as="geometry" />
        </mxCell>
        <mxCell id="H0H0fJoh627wvlZ6eN0J-6" style="rounded=1;orthogonalLoop=1;jettySize=auto;html=1;" parent="1" source="H0H0fJoh627wvlZ6eN0J-3" target="H0H0fJoh627wvlZ6eN0J-5" edge="1">
          <mxGeometry relative="1" as="geometry" />
        </mxCell>
        <mxCell id="H0H0fJoh627wvlZ6eN0J-3" value="_set_dict_param_type()" style="rounded=0;whiteSpace=wrap;html=1;" parent="1" vertex="1">
          <mxGeometry x="160" y="240" width="120" height="60" as="geometry" />
        </mxCell>
        <mxCell id="H0H0fJoh627wvlZ6eN0J-5" value="&amp;lt;DS&amp;gt;&lt;div&gt;dict_param_type&lt;/div&gt;" style="rounded=0;whiteSpace=wrap;html=1;" parent="1" vertex="1">
          <mxGeometry x="280" y="320" width="120" height="60" as="geometry" />
        </mxCell>
        <mxCell id="H0H0fJoh627wvlZ6eN0J-8" style="rounded=1;orthogonalLoop=1;jettySize=auto;html=1;" parent="1" source="H0H0fJoh627wvlZ6eN0J-9" target="H0H0fJoh627wvlZ6eN0J-10" edge="1">
          <mxGeometry relative="1" as="geometry" />
        </mxCell>
        <mxCell id="H0H0fJoh627wvlZ6eN0J-9" value="_set_func_dict()" style="rounded=0;whiteSpace=wrap;html=1;" parent="1" vertex="1">
          <mxGeometry x="360" y="240" width="120" height="60" as="geometry" />
        </mxCell>
        <mxCell id="H0H0fJoh627wvlZ6eN0J-10" value="&amp;lt;DS&amp;gt;&lt;div&gt;dict_functions&lt;/div&gt;" style="rounded=0;whiteSpace=wrap;html=1;" parent="1" vertex="1">
          <mxGeometry x="480" y="320" width="120" height="60" as="geometry" />
        </mxCell>
        <mxCell id="H0H0fJoh627wvlZ6eN0J-11" style="edgeStyle=orthogonalEdgeStyle;rounded=1;orthogonalLoop=1;jettySize=auto;html=1;curved=0;" parent="1" source="H0H0fJoh627wvlZ6eN0J-1" target="H0H0fJoh627wvlZ6eN0J-9" edge="1">
          <mxGeometry relative="1" as="geometry">
            <mxPoint x="230" y="110" as="sourcePoint" />
            <mxPoint x="230" y="250" as="targetPoint" />
            <Array as="points">
              <mxPoint x="220" y="160" />
              <mxPoint x="420" y="160" />
            </Array>
          </mxGeometry>
        </mxCell>
        <mxCell id="H0H0fJoh627wvlZ6eN0J-12" style="rounded=1;orthogonalLoop=1;jettySize=auto;html=1;" parent="1" source="H0H0fJoh627wvlZ6eN0J-13" target="H0H0fJoh627wvlZ6eN0J-14" edge="1">
          <mxGeometry relative="1" as="geometry" />
        </mxCell>
        <mxCell id="H0H0fJoh627wvlZ6eN0J-13" value="_set_value_str_to_value()" style="rounded=0;whiteSpace=wrap;html=1;" parent="1" vertex="1">
          <mxGeometry x="600" y="440" width="120" height="60" as="geometry" />
        </mxCell>
        <mxCell id="H0H0fJoh627wvlZ6eN0J-14" value="&lt;div&gt;(decode_value_str_to_value())[]&lt;/div&gt;" style="rounded=0;whiteSpace=wrap;html=1;" parent="1" vertex="1">
          <mxGeometry x="720" y="520" width="120" height="60" as="geometry" />
        </mxCell>
        <mxCell id="H0H0fJoh627wvlZ6eN0J-15" value="&lt;div&gt;(decode_value_str_to_value())[]&lt;/div&gt;" style="rounded=0;whiteSpace=wrap;html=1;" parent="1" vertex="1">
          <mxGeometry x="730" y="530" width="120" height="60" as="geometry" />
        </mxCell>
        <mxCell id="H0H0fJoh627wvlZ6eN0J-16" value="&lt;div&gt;(decode_value_str_to_value())[]&lt;/div&gt;" style="rounded=0;whiteSpace=wrap;html=1;" parent="1" vertex="1">
          <mxGeometry x="740" y="540" width="120" height="60" as="geometry" />
        </mxCell>
        <mxCell id="H0H0fJoh627wvlZ6eN0J-17" style="edgeStyle=orthogonalEdgeStyle;rounded=1;orthogonalLoop=1;jettySize=auto;html=1;curved=0;" parent="1" source="H0H0fJoh627wvlZ6eN0J-1" target="H0H0fJoh627wvlZ6eN0J-13" edge="1">
          <mxGeometry relative="1" as="geometry">
            <mxPoint x="230" y="40" as="sourcePoint" />
            <mxPoint x="560" y="200" as="targetPoint" />
            <Array as="points">
              <mxPoint x="220" y="160" />
              <mxPoint x="660" y="160" />
            </Array>
          </mxGeometry>
        </mxCell>
        <mxCell id="H0H0fJoh627wvlZ6eN0J-18" style="rounded=1;orthogonalLoop=1;jettySize=auto;html=1;" parent="1" source="H0H0fJoh627wvlZ6eN0J-5" target="H0H0fJoh627wvlZ6eN0J-13" edge="1">
          <mxGeometry relative="1" as="geometry">
            <mxPoint x="275" y="310" as="sourcePoint" />
            <mxPoint x="305" y="330" as="targetPoint" />
          </mxGeometry>
        </mxCell>
        <mxCell id="H0H0fJoh627wvlZ6eN0J-19" style="rounded=1;orthogonalLoop=1;jettySize=auto;html=1;" parent="1" source="H0H0fJoh627wvlZ6eN0J-10" target="H0H0fJoh627wvlZ6eN0J-13" edge="1">
          <mxGeometry relative="1" as="geometry">
            <mxPoint x="285" y="320" as="sourcePoint" />
            <mxPoint x="315" y="340" as="targetPoint" />
          </mxGeometry>
        </mxCell>
        <mxCell id="H0H0fJoh627wvlZ6eN0J-20" value="&amp;lt;I&amp;gt;&lt;div&gt;_set_all_config_dict()&lt;/div&gt;" style="rounded=0;whiteSpace=wrap;html=1;" parent="1" vertex="1">
          <mxGeometry x="920" y="640" width="120" height="60" as="geometry" />
        </mxCell>
        <mxCell id="H0H0fJoh627wvlZ6eN0J-21" style="rounded=1;orthogonalLoop=1;jettySize=auto;html=1;" parent="1" source="H0H0fJoh627wvlZ6eN0J-16" target="H0H0fJoh627wvlZ6eN0J-20" edge="1">
          <mxGeometry relative="1" as="geometry">
            <mxPoint x="580" y="390" as="sourcePoint" />
            <mxPoint x="640" y="450" as="targetPoint" />
          </mxGeometry>
        </mxCell>
        <mxCell id="H0H0fJoh627wvlZ6eN0J-22" style="edgeStyle=orthogonalEdgeStyle;rounded=1;orthogonalLoop=1;jettySize=auto;html=1;curved=0;" parent="1" source="H0H0fJoh627wvlZ6eN0J-1" target="H0H0fJoh627wvlZ6eN0J-20" edge="1">
          <mxGeometry relative="1" as="geometry">
            <mxPoint x="230" y="110" as="sourcePoint" />
            <mxPoint x="670" y="450" as="targetPoint" />
            <Array as="points">
              <mxPoint x="220" y="160" />
              <mxPoint x="980" y="160" />
            </Array>
          </mxGeometry>
        </mxCell>
        <mxCell id="H0H0fJoh627wvlZ6eN0J-23" value="&amp;lt;DS&amp;gt;&lt;div&gt;dict_all_config&lt;/div&gt;" style="rounded=0;whiteSpace=wrap;html=1;" parent="1" vertex="1">
          <mxGeometry x="1080" y="720" width="120" height="60" as="geometry" />
        </mxCell>
        <mxCell id="H0H0fJoh627wvlZ6eN0J-24" style="rounded=1;orthogonalLoop=1;jettySize=auto;html=1;" parent="1" source="H0H0fJoh627wvlZ6eN0J-20" target="H0H0fJoh627wvlZ6eN0J-23" edge="1">
          <mxGeometry relative="1" as="geometry">
            <mxPoint x="1050" y="660" as="sourcePoint" />
            <mxPoint x="795" y="620" as="targetPoint" />
          </mxGeometry>
        </mxCell>
        <mxCell id="H0H0fJoh627wvlZ6eN0J-26" style="edgeStyle=orthogonalEdgeStyle;rounded=1;orthogonalLoop=1;jettySize=auto;html=1;curved=0;endArrow=block;endFill=0;" parent="1" source="H0H0fJoh627wvlZ6eN0J-25" target="H0H0fJoh627wvlZ6eN0J-20" edge="1">
          <mxGeometry relative="1" as="geometry" />
        </mxCell>
        <mxCell id="H0H0fJoh627wvlZ6eN0J-25" value="&lt;div&gt;_set_all_config_dict()&lt;/div&gt;" style="rounded=0;whiteSpace=wrap;html=1;" parent="1" vertex="1">
          <mxGeometry x="920" y="1080" width="120" height="60" as="geometry" />
        </mxCell>
        <mxCell id="H0H0fJoh627wvlZ6eN0J-28" value="setConfigParams2OuterDict()" style="rounded=0;whiteSpace=wrap;html=1;" parent="1" vertex="1">
          <mxGeometry x="1250" y="800" width="120" height="60" as="geometry" />
        </mxCell>
        <mxCell id="H0H0fJoh627wvlZ6eN0J-30" style="rounded=1;orthogonalLoop=1;jettySize=auto;html=1;" parent="1" source="H0H0fJoh627wvlZ6eN0J-23" target="H0H0fJoh627wvlZ6eN0J-28" edge="1">
          <mxGeometry relative="1" as="geometry">
            <mxPoint x="864" y="610" as="sourcePoint" />
            <mxPoint x="936" y="650" as="targetPoint" />
          </mxGeometry>
        </mxCell>
        <mxCell id="ZlI_Ul9aRBBHLrUR2pkL-1" style="edgeStyle=orthogonalEdgeStyle;rounded=0;orthogonalLoop=1;jettySize=auto;html=1;curved=1;endArrow=none;endFill=0;" parent="1" source="ZlI_Ul9aRBBHLrUR2pkL-2" target="H0H0fJoh627wvlZ6eN0J-23" edge="1">
          <mxGeometry relative="1" as="geometry">
            <mxPoint x="1140" y="720" as="targetPoint" />
          </mxGeometry>
        </mxCell>
        <mxCell id="ZlI_Ul9aRBBHLrUR2pkL-2" value="2次元配列dict_all_config[section][paramName] = value" style="shape=note;whiteSpace=wrap;html=1;backgroundOutline=1;darkOpacity=0.05;size=12;" parent="1" vertex="1">
          <mxGeometry x="1140" y="540" width="130" height="100" as="geometry" />
        </mxCell>
        <mxCell id="ZlI_Ul9aRBBHLrUR2pkL-3" value="setConfigParams2OuterDict()" style="text;html=1;align=center;verticalAlign=middle;whiteSpace=wrap;rounded=0;" parent="1" vertex="1">
          <mxGeometry x="1250" y="870" width="60" height="30" as="geometry" />
        </mxCell>
        <mxCell id="nrRrMzEDJv7GHUQUTg86-1" value="&amp;lt;I&amp;gt;&lt;div&gt;_set_all_config_dict()&lt;/div&gt;" style="text;html=1;align=center;verticalAlign=middle;whiteSpace=wrap;rounded=0;" parent="1" vertex="1">
          <mxGeometry x="860" y="710" width="60" height="30" as="geometry" />
        </mxCell>
      </root>
    </mxGraphModel>
  </diagram>
  <diagram name="20240818" id="WG9H9_CyKZvuXEHSOOkj">
    <mxGraphModel dx="2256" dy="1181" grid="1" gridSize="10" guides="1" tooltips="1" connect="1" arrows="1" fold="1" page="1" pageScale="1" pageWidth="827" pageHeight="1169" math="0" shadow="0">
      <root>
        <mxCell id="SZmem4GzENlsNNQeYUeN-0" />
        <mxCell id="SZmem4GzENlsNNQeYUeN-1" parent="SZmem4GzENlsNNQeYUeN-0" />
        <mxCell id="SZmem4GzENlsNNQeYUeN-2" value="" style="rounded=0;whiteSpace=wrap;html=1;fillColor=none;" parent="SZmem4GzENlsNNQeYUeN-1" vertex="1">
          <mxGeometry x="38" width="1422" height="1020" as="geometry" />
        </mxCell>
        <mxCell id="SZmem4GzENlsNNQeYUeN-3" style="edgeStyle=orthogonalEdgeStyle;rounded=1;orthogonalLoop=1;jettySize=auto;html=1;curved=0;" parent="SZmem4GzENlsNNQeYUeN-1" source="SZmem4GzENlsNNQeYUeN-4" target="SZmem4GzENlsNNQeYUeN-8" edge="1">
          <mxGeometry relative="1" as="geometry" />
        </mxCell>
        <mxCell id="SZmem4GzENlsNNQeYUeN-4" value="__init__()" style="rounded=0;whiteSpace=wrap;html=1;" parent="SZmem4GzENlsNNQeYUeN-1" vertex="1">
          <mxGeometry x="160" y="40" width="120" height="60" as="geometry" />
        </mxCell>
        <mxCell id="SZmem4GzENlsNNQeYUeN-5" style="rounded=0;orthogonalLoop=1;jettySize=auto;html=1;" parent="SZmem4GzENlsNNQeYUeN-1" source="SZmem4GzENlsNNQeYUeN-6" target="SZmem4GzENlsNNQeYUeN-8" edge="1">
          <mxGeometry relative="1" as="geometry" />
        </mxCell>
        <mxCell id="SZmem4GzENlsNNQeYUeN-6" value="&amp;lt;DS&amp;gt;&lt;div&gt;param_type_def_file&lt;/div&gt;" style="rounded=0;whiteSpace=wrap;html=1;" parent="SZmem4GzENlsNNQeYUeN-1" vertex="1">
          <mxGeometry x="80" y="160" width="120" height="60" as="geometry" />
        </mxCell>
        <mxCell id="SZmem4GzENlsNNQeYUeN-7" style="rounded=1;orthogonalLoop=1;jettySize=auto;html=1;" parent="SZmem4GzENlsNNQeYUeN-1" source="SZmem4GzENlsNNQeYUeN-8" target="SZmem4GzENlsNNQeYUeN-9" edge="1">
          <mxGeometry relative="1" as="geometry" />
        </mxCell>
        <mxCell id="SZmem4GzENlsNNQeYUeN-8" value="_set_dict_param_type()" style="rounded=0;whiteSpace=wrap;html=1;" parent="SZmem4GzENlsNNQeYUeN-1" vertex="1">
          <mxGeometry x="160" y="240" width="120" height="60" as="geometry" />
        </mxCell>
        <mxCell id="SZmem4GzENlsNNQeYUeN-9" value="&amp;lt;DS&amp;gt;&lt;div&gt;dict_param_type&lt;/div&gt;" style="rounded=0;whiteSpace=wrap;html=1;" parent="SZmem4GzENlsNNQeYUeN-1" vertex="1">
          <mxGeometry x="280" y="320" width="120" height="60" as="geometry" />
        </mxCell>
        <mxCell id="SZmem4GzENlsNNQeYUeN-10" style="rounded=1;orthogonalLoop=1;jettySize=auto;html=1;" parent="SZmem4GzENlsNNQeYUeN-1" source="SZmem4GzENlsNNQeYUeN-11" target="SZmem4GzENlsNNQeYUeN-12" edge="1">
          <mxGeometry relative="1" as="geometry" />
        </mxCell>
        <mxCell id="SZmem4GzENlsNNQeYUeN-11" value="_set_func_dict()" style="rounded=0;whiteSpace=wrap;html=1;" parent="SZmem4GzENlsNNQeYUeN-1" vertex="1">
          <mxGeometry x="360" y="240" width="120" height="60" as="geometry" />
        </mxCell>
        <mxCell id="SZmem4GzENlsNNQeYUeN-12" value="&amp;lt;DS&amp;gt;&lt;div&gt;dict_functions&lt;/div&gt;" style="rounded=0;whiteSpace=wrap;html=1;" parent="SZmem4GzENlsNNQeYUeN-1" vertex="1">
          <mxGeometry x="480" y="320" width="120" height="60" as="geometry" />
        </mxCell>
        <mxCell id="SZmem4GzENlsNNQeYUeN-13" style="edgeStyle=orthogonalEdgeStyle;rounded=1;orthogonalLoop=1;jettySize=auto;html=1;curved=0;" parent="SZmem4GzENlsNNQeYUeN-1" source="SZmem4GzENlsNNQeYUeN-4" target="SZmem4GzENlsNNQeYUeN-11" edge="1">
          <mxGeometry relative="1" as="geometry">
            <mxPoint x="230" y="110" as="sourcePoint" />
            <mxPoint x="230" y="250" as="targetPoint" />
            <Array as="points">
              <mxPoint x="220" y="160" />
              <mxPoint x="420" y="160" />
            </Array>
          </mxGeometry>
        </mxCell>
        <mxCell id="SZmem4GzENlsNNQeYUeN-14" style="rounded=1;orthogonalLoop=1;jettySize=auto;html=1;" parent="SZmem4GzENlsNNQeYUeN-1" source="SZmem4GzENlsNNQeYUeN-15" target="SZmem4GzENlsNNQeYUeN-16" edge="1">
          <mxGeometry relative="1" as="geometry" />
        </mxCell>
        <mxCell id="SZmem4GzENlsNNQeYUeN-15" value="_set_decode_funcitons()" style="rounded=0;whiteSpace=wrap;html=1;" parent="SZmem4GzENlsNNQeYUeN-1" vertex="1">
          <mxGeometry x="600" y="440" width="120" height="60" as="geometry" />
        </mxCell>
        <mxCell id="SZmem4GzENlsNNQeYUeN-16" value="&lt;div&gt;(decode_value_str_to_value())[]&lt;/div&gt;" style="rounded=0;whiteSpace=wrap;html=1;" parent="SZmem4GzENlsNNQeYUeN-1" vertex="1">
          <mxGeometry x="720" y="520" width="120" height="60" as="geometry" />
        </mxCell>
        <mxCell id="SZmem4GzENlsNNQeYUeN-17" value="&lt;div&gt;(decode_value_str_to_value())[]&lt;/div&gt;" style="rounded=0;whiteSpace=wrap;html=1;" parent="SZmem4GzENlsNNQeYUeN-1" vertex="1">
          <mxGeometry x="730" y="530" width="120" height="60" as="geometry" />
        </mxCell>
        <mxCell id="SZmem4GzENlsNNQeYUeN-18" value="&lt;div&gt;(decode_value_str_to_value())[]&lt;/div&gt;" style="rounded=0;whiteSpace=wrap;html=1;" parent="SZmem4GzENlsNNQeYUeN-1" vertex="1">
          <mxGeometry x="740" y="540" width="120" height="60" as="geometry" />
        </mxCell>
        <mxCell id="SZmem4GzENlsNNQeYUeN-19" style="edgeStyle=orthogonalEdgeStyle;rounded=1;orthogonalLoop=1;jettySize=auto;html=1;curved=0;" parent="SZmem4GzENlsNNQeYUeN-1" source="SZmem4GzENlsNNQeYUeN-4" target="SZmem4GzENlsNNQeYUeN-15" edge="1">
          <mxGeometry relative="1" as="geometry">
            <mxPoint x="230" y="40" as="sourcePoint" />
            <mxPoint x="560" y="200" as="targetPoint" />
            <Array as="points">
              <mxPoint x="220" y="160" />
              <mxPoint x="660" y="160" />
            </Array>
          </mxGeometry>
        </mxCell>
        <mxCell id="SZmem4GzENlsNNQeYUeN-20" style="rounded=1;orthogonalLoop=1;jettySize=auto;html=1;" parent="SZmem4GzENlsNNQeYUeN-1" source="SZmem4GzENlsNNQeYUeN-9" target="SZmem4GzENlsNNQeYUeN-15" edge="1">
          <mxGeometry relative="1" as="geometry">
            <mxPoint x="275" y="310" as="sourcePoint" />
            <mxPoint x="305" y="330" as="targetPoint" />
          </mxGeometry>
        </mxCell>
        <mxCell id="SZmem4GzENlsNNQeYUeN-21" style="rounded=1;orthogonalLoop=1;jettySize=auto;html=1;" parent="SZmem4GzENlsNNQeYUeN-1" source="SZmem4GzENlsNNQeYUeN-12" target="SZmem4GzENlsNNQeYUeN-15" edge="1">
          <mxGeometry relative="1" as="geometry">
            <mxPoint x="285" y="320" as="sourcePoint" />
            <mxPoint x="315" y="340" as="targetPoint" />
          </mxGeometry>
        </mxCell>
        <mxCell id="SZmem4GzENlsNNQeYUeN-22" value="&amp;lt;I&amp;gt;&lt;div&gt;read_config()&lt;/div&gt;" style="rounded=0;whiteSpace=wrap;html=1;" parent="SZmem4GzENlsNNQeYUeN-1" vertex="1">
          <mxGeometry x="920" y="640" width="120" height="60" as="geometry" />
        </mxCell>
        <mxCell id="SZmem4GzENlsNNQeYUeN-23" style="rounded=1;orthogonalLoop=1;jettySize=auto;html=1;" parent="SZmem4GzENlsNNQeYUeN-1" source="SZmem4GzENlsNNQeYUeN-18" target="SZmem4GzENlsNNQeYUeN-22" edge="1">
          <mxGeometry relative="1" as="geometry">
            <mxPoint x="580" y="390" as="sourcePoint" />
            <mxPoint x="640" y="450" as="targetPoint" />
          </mxGeometry>
        </mxCell>
        <mxCell id="SZmem4GzENlsNNQeYUeN-24" style="edgeStyle=orthogonalEdgeStyle;rounded=1;orthogonalLoop=1;jettySize=auto;html=1;curved=0;" parent="SZmem4GzENlsNNQeYUeN-1" source="SZmem4GzENlsNNQeYUeN-4" target="SZmem4GzENlsNNQeYUeN-22" edge="1">
          <mxGeometry relative="1" as="geometry">
            <mxPoint x="230" y="110" as="sourcePoint" />
            <mxPoint x="670" y="450" as="targetPoint" />
            <Array as="points">
              <mxPoint x="220" y="160" />
              <mxPoint x="980" y="160" />
            </Array>
          </mxGeometry>
        </mxCell>
        <mxCell id="SZmem4GzENlsNNQeYUeN-25" value="&amp;lt;DS&amp;gt;&lt;div&gt;dict_all_config&lt;/div&gt;" style="rounded=0;whiteSpace=wrap;html=1;" parent="SZmem4GzENlsNNQeYUeN-1" vertex="1">
          <mxGeometry x="1080" y="720" width="120" height="60" as="geometry" />
        </mxCell>
        <mxCell id="SZmem4GzENlsNNQeYUeN-26" style="rounded=1;orthogonalLoop=1;jettySize=auto;html=1;" parent="SZmem4GzENlsNNQeYUeN-1" source="SZmem4GzENlsNNQeYUeN-22" target="SZmem4GzENlsNNQeYUeN-25" edge="1">
          <mxGeometry relative="1" as="geometry">
            <mxPoint x="1050" y="660" as="sourcePoint" />
            <mxPoint x="795" y="620" as="targetPoint" />
          </mxGeometry>
        </mxCell>
        <mxCell id="SZmem4GzENlsNNQeYUeN-27" style="edgeStyle=orthogonalEdgeStyle;rounded=1;orthogonalLoop=1;jettySize=auto;html=1;curved=0;endArrow=block;endFill=0;" parent="SZmem4GzENlsNNQeYUeN-1" source="SZmem4GzENlsNNQeYUeN-28" target="SZmem4GzENlsNNQeYUeN-22" edge="1">
          <mxGeometry relative="1" as="geometry" />
        </mxCell>
        <mxCell id="SZmem4GzENlsNNQeYUeN-28" value="&lt;div&gt;read_config()&lt;/div&gt;" style="rounded=0;whiteSpace=wrap;html=1;" parent="SZmem4GzENlsNNQeYUeN-1" vertex="1">
          <mxGeometry x="920" y="1080" width="120" height="60" as="geometry" />
        </mxCell>
        <mxCell id="SZmem4GzENlsNNQeYUeN-29" value="update()" style="rounded=0;whiteSpace=wrap;html=1;" parent="SZmem4GzENlsNNQeYUeN-1" vertex="1">
          <mxGeometry x="920" y="40" width="120" height="60" as="geometry" />
        </mxCell>
        <mxCell id="SZmem4GzENlsNNQeYUeN-30" style="rounded=1;orthogonalLoop=1;jettySize=auto;html=1;" parent="SZmem4GzENlsNNQeYUeN-1" source="SZmem4GzENlsNNQeYUeN-25" target="QJ3sGjiDHIzCPQLsoIyF-0" edge="1">
          <mxGeometry relative="1" as="geometry">
            <mxPoint x="864" y="610" as="sourcePoint" />
            <mxPoint x="936" y="650" as="targetPoint" />
          </mxGeometry>
        </mxCell>
        <mxCell id="SZmem4GzENlsNNQeYUeN-31" style="edgeStyle=orthogonalEdgeStyle;rounded=1;orthogonalLoop=1;jettySize=auto;html=1;curved=0;" parent="SZmem4GzENlsNNQeYUeN-1" source="SZmem4GzENlsNNQeYUeN-29" target="SZmem4GzENlsNNQeYUeN-22" edge="1">
          <mxGeometry relative="1" as="geometry">
            <mxPoint x="230" y="110" as="sourcePoint" />
            <mxPoint x="990" y="650" as="targetPoint" />
            <Array as="points">
              <mxPoint x="980" y="210" />
              <mxPoint x="980" y="210" />
            </Array>
          </mxGeometry>
        </mxCell>
        <mxCell id="QJ3sGjiDHIzCPQLsoIyF-0" value="config_section_to_dict()" style="rounded=0;whiteSpace=wrap;html=1;" parent="SZmem4GzENlsNNQeYUeN-1" vertex="1">
          <mxGeometry x="1241" y="800" width="120" height="60" as="geometry" />
        </mxCell>
        <mxCell id="QJ3sGjiDHIzCPQLsoIyF-8" style="edgeStyle=orthogonalEdgeStyle;rounded=0;orthogonalLoop=1;jettySize=auto;html=1;curved=1;endArrow=none;endFill=0;" parent="SZmem4GzENlsNNQeYUeN-1" source="QJ3sGjiDHIzCPQLsoIyF-7" target="SZmem4GzENlsNNQeYUeN-25" edge="1">
          <mxGeometry relative="1" as="geometry" />
        </mxCell>
        <mxCell id="QJ3sGjiDHIzCPQLsoIyF-7" value="2次元配列dict_all_config[section][paramName] = value" style="shape=note;whiteSpace=wrap;html=1;backgroundOutline=1;darkOpacity=0.05;size=12;" parent="SZmem4GzENlsNNQeYUeN-1" vertex="1">
          <mxGeometry x="1140" y="540" width="130" height="100" as="geometry" />
        </mxCell>
        <mxCell id="QJ3sGjiDHIzCPQLsoIyF-9" value="&amp;lt;I&amp;gt;&lt;div&gt;write_config()&lt;/div&gt;" style="rounded=0;whiteSpace=wrap;html=1;" parent="SZmem4GzENlsNNQeYUeN-1" vertex="1">
          <mxGeometry x="1241" y="920" width="120" height="60" as="geometry" />
        </mxCell>
        <mxCell id="QJ3sGjiDHIzCPQLsoIyF-10" style="rounded=1;orthogonalLoop=1;jettySize=auto;html=1;" parent="SZmem4GzENlsNNQeYUeN-1" source="SZmem4GzENlsNNQeYUeN-25" target="QJ3sGjiDHIzCPQLsoIyF-9" edge="1">
          <mxGeometry relative="1" as="geometry">
            <mxPoint x="1210" y="790" as="sourcePoint" />
            <mxPoint x="1251" y="810" as="targetPoint" />
          </mxGeometry>
        </mxCell>
        <mxCell id="QJ3sGjiDHIzCPQLsoIyF-12" value="&lt;div&gt;write_config()&lt;/div&gt;" style="rounded=0;whiteSpace=wrap;html=1;" parent="SZmem4GzENlsNNQeYUeN-1" vertex="1">
          <mxGeometry x="1241" y="1080" width="120" height="60" as="geometry" />
        </mxCell>
        <mxCell id="QJ3sGjiDHIzCPQLsoIyF-13" style="edgeStyle=orthogonalEdgeStyle;rounded=1;orthogonalLoop=1;jettySize=auto;html=1;curved=0;endArrow=block;endFill=0;" parent="SZmem4GzENlsNNQeYUeN-1" source="QJ3sGjiDHIzCPQLsoIyF-12" target="QJ3sGjiDHIzCPQLsoIyF-9" edge="1">
          <mxGeometry relative="1" as="geometry">
            <mxPoint x="990" y="1090" as="sourcePoint" />
            <mxPoint x="990" y="710" as="targetPoint" />
          </mxGeometry>
        </mxCell>
        <mxCell id="P5Ih-e97RSkbve5ruhi_-0" value="setConfigParams2OuterDict()" style="text;html=1;align=center;verticalAlign=middle;whiteSpace=wrap;rounded=0;" parent="SZmem4GzENlsNNQeYUeN-1" vertex="1">
          <mxGeometry x="1320" y="860" width="60" height="30" as="geometry" />
        </mxCell>
        <mxCell id="rqJ9GSwWLot1U5YrIFLu-0" value="&amp;lt;I&amp;gt;&lt;div&gt;_set_all_config_dict()&lt;/div&gt;" style="text;html=1;align=center;verticalAlign=middle;whiteSpace=wrap;rounded=0;" parent="SZmem4GzENlsNNQeYUeN-1" vertex="1">
          <mxGeometry x="890" y="700" width="60" height="30" as="geometry" />
        </mxCell>
        <mxCell id="zHa03qwG2qiGFz0Zdirj-0" value="&lt;font style=&quot;font-size: 28px;&quot;&gt;AbstConfigDataクラス&lt;/font&gt;" style="text;html=1;align=center;verticalAlign=middle;whiteSpace=wrap;rounded=0;" vertex="1" parent="SZmem4GzENlsNNQeYUeN-1">
          <mxGeometry x="1150" y="20" width="300" height="30" as="geometry" />
        </mxCell>
      </root>
    </mxGraphModel>
  </diagram>
  <diagram id="UkQvYl1KFucpkZOGPLHV" name="ページ3">
    <mxGraphModel dx="2425" dy="837" grid="1" gridSize="10" guides="1" tooltips="1" connect="1" arrows="1" fold="1" page="1" pageScale="1" pageWidth="827" pageHeight="1169" math="0" shadow="0">
      <root>
        <mxCell id="0" />
        <mxCell id="1" parent="0" />
        <mxCell id="nL9Xami4pa4IduSFTzA8-1" value="AbstCompGraph" style="swimlane;fontStyle=1;align=center;verticalAlign=top;childLayout=stackLayout;horizontal=1;startSize=26;horizontalStack=0;resizeParent=1;resizeParentMax=0;resizeLast=0;collapsible=1;marginBottom=0;whiteSpace=wrap;html=1;" vertex="1" parent="1">
          <mxGeometry x="40" y="40" width="210" height="580" as="geometry" />
        </mxCell>
        <mxCell id="nL9Xami4pa4IduSFTzA8-2" value="+ formulas: dict" style="text;strokeColor=none;fillColor=none;align=left;verticalAlign=top;spacingLeft=4;spacingRight=4;overflow=hidden;rotatable=0;points=[[0,0.5],[1,0.5]];portConstraint=eastwest;whiteSpace=wrap;html=1;" vertex="1" parent="nL9Xami4pa4IduSFTzA8-1">
          <mxGeometry y="26" width="210" height="26" as="geometry" />
        </mxCell>
        <mxCell id="nL9Xami4pa4IduSFTzA8-19" value="+ number_of_open_formulas: int" style="text;strokeColor=none;fillColor=none;align=left;verticalAlign=top;spacingLeft=4;spacingRight=4;overflow=hidden;rotatable=0;points=[[0,0.5],[1,0.5]];portConstraint=eastwest;whiteSpace=wrap;html=1;" vertex="1" parent="nL9Xami4pa4IduSFTzA8-1">
          <mxGeometry y="52" width="210" height="26" as="geometry" />
        </mxCell>
        <mxCell id="nL9Xami4pa4IduSFTzA8-20" value="+ southern_limit_so_far: int" style="text;strokeColor=none;fillColor=none;align=left;verticalAlign=top;spacingLeft=4;spacingRight=4;overflow=hidden;rotatable=0;points=[[0,0.5],[1,0.5]];portConstraint=eastwest;whiteSpace=wrap;html=1;" vertex="1" parent="nL9Xami4pa4IduSFTzA8-1">
          <mxGeometry y="78" width="210" height="26" as="geometry" />
        </mxCell>
        <mxCell id="nL9Xami4pa4IduSFTzA8-18" value="+ debugMode: bool" style="text;strokeColor=none;fillColor=none;align=left;verticalAlign=top;spacingLeft=4;spacingRight=4;overflow=hidden;rotatable=0;points=[[0,0.5],[1,0.5]];portConstraint=eastwest;whiteSpace=wrap;html=1;" vertex="1" parent="nL9Xami4pa4IduSFTzA8-1">
          <mxGeometry y="104" width="210" height="26" as="geometry" />
        </mxCell>
        <mxCell id="nL9Xami4pa4IduSFTzA8-3" value="" style="line;strokeWidth=1;fillColor=none;align=left;verticalAlign=middle;spacingTop=-1;spacingLeft=3;spacingRight=3;rotatable=0;labelPosition=right;points=[];portConstraint=eastwest;strokeColor=inherit;" vertex="1" parent="nL9Xami4pa4IduSFTzA8-1">
          <mxGeometry y="130" width="210" height="8" as="geometry" />
        </mxCell>
        <mxCell id="nL9Xami4pa4IduSFTzA8-4" value="+ __init__()" style="text;strokeColor=none;fillColor=none;align=left;verticalAlign=top;spacingLeft=4;spacingRight=4;overflow=hidden;rotatable=0;points=[[0,0.5],[1,0.5]];portConstraint=eastwest;whiteSpace=wrap;html=1;" vertex="1" parent="nL9Xami4pa4IduSFTzA8-1">
          <mxGeometry y="138" width="210" height="26" as="geometry" />
        </mxCell>
        <mxCell id="nL9Xami4pa4IduSFTzA8-6" value="+ &amp;lt;I&amp;gt;update()" style="text;strokeColor=none;fillColor=none;align=left;verticalAlign=top;spacingLeft=4;spacingRight=4;overflow=hidden;rotatable=0;points=[[0,0.5],[1,0.5]];portConstraint=eastwest;whiteSpace=wrap;html=1;" vertex="1" parent="nL9Xami4pa4IduSFTzA8-1">
          <mxGeometry y="164" width="210" height="26" as="geometry" />
        </mxCell>
        <mxCell id="nL9Xami4pa4IduSFTzA8-7" value="+ &amp;lt;I&amp;gt;graph_to_formula()" style="text;strokeColor=none;fillColor=none;align=left;verticalAlign=top;spacingLeft=4;spacingRight=4;overflow=hidden;rotatable=0;points=[[0,0.5],[1,0.5]];portConstraint=eastwest;whiteSpace=wrap;html=1;" vertex="1" parent="nL9Xami4pa4IduSFTzA8-1">
          <mxGeometry y="190" width="210" height="26" as="geometry" />
        </mxCell>
        <mxCell id="nL9Xami4pa4IduSFTzA8-8" value="+ formulas_in_lisp()" style="text;strokeColor=none;fillColor=none;align=left;verticalAlign=top;spacingLeft=4;spacingRight=4;overflow=hidden;rotatable=0;points=[[0,0.5],[1,0.5]];portConstraint=eastwest;whiteSpace=wrap;html=1;" vertex="1" parent="nL9Xami4pa4IduSFTzA8-1">
          <mxGeometry y="216" width="210" height="26" as="geometry" />
        </mxCell>
        <mxCell id="nL9Xami4pa4IduSFTzA8-5" value="+ formulas_in_dict()" style="text;strokeColor=none;fillColor=none;align=left;verticalAlign=top;spacingLeft=4;spacingRight=4;overflow=hidden;rotatable=0;points=[[0,0.5],[1,0.5]];portConstraint=eastwest;whiteSpace=wrap;html=1;" vertex="1" parent="nL9Xami4pa4IduSFTzA8-1">
          <mxGeometry y="242" width="210" height="26" as="geometry" />
        </mxCell>
        <mxCell id="nL9Xami4pa4IduSFTzA8-10" value="- _read_cell()" style="text;strokeColor=none;fillColor=none;align=left;verticalAlign=top;spacingLeft=4;spacingRight=4;overflow=hidden;rotatable=0;points=[[0,0.5],[1,0.5]];portConstraint=eastwest;whiteSpace=wrap;html=1;" vertex="1" parent="nL9Xami4pa4IduSFTzA8-1">
          <mxGeometry y="268" width="210" height="26" as="geometry" />
        </mxCell>
        <mxCell id="nL9Xami4pa4IduSFTzA8-13" value="-&amp;lt;I&amp;gt; _is_operator()" style="text;strokeColor=none;fillColor=none;align=left;verticalAlign=top;spacingLeft=4;spacingRight=4;overflow=hidden;rotatable=0;points=[[0,0.5],[1,0.5]];portConstraint=eastwest;whiteSpace=wrap;html=1;" vertex="1" parent="nL9Xami4pa4IduSFTzA8-1">
          <mxGeometry y="294" width="210" height="26" as="geometry" />
        </mxCell>
        <mxCell id="nL9Xami4pa4IduSFTzA8-11" value="-&amp;lt;I&amp;gt; _is_connector()" style="text;strokeColor=none;fillColor=none;align=left;verticalAlign=top;spacingLeft=4;spacingRight=4;overflow=hidden;rotatable=0;points=[[0,0.5],[1,0.5]];portConstraint=eastwest;whiteSpace=wrap;html=1;" vertex="1" parent="nL9Xami4pa4IduSFTzA8-1">
          <mxGeometry y="320" width="210" height="26" as="geometry" />
        </mxCell>
        <mxCell id="nL9Xami4pa4IduSFTzA8-9" value="-&amp;lt;I&amp;gt; _process_operator()" style="text;strokeColor=none;fillColor=none;align=left;verticalAlign=top;spacingLeft=4;spacingRight=4;overflow=hidden;rotatable=0;points=[[0,0.5],[1,0.5]];portConstraint=eastwest;whiteSpace=wrap;html=1;" vertex="1" parent="nL9Xami4pa4IduSFTzA8-1">
          <mxGeometry y="346" width="210" height="26" as="geometry" />
        </mxCell>
        <mxCell id="nL9Xami4pa4IduSFTzA8-12" value="-&amp;lt;I&amp;gt; _process_connector()" style="text;strokeColor=none;fillColor=none;align=left;verticalAlign=top;spacingLeft=4;spacingRight=4;overflow=hidden;rotatable=0;points=[[0,0.5],[1,0.5]];portConstraint=eastwest;whiteSpace=wrap;html=1;" vertex="1" parent="nL9Xami4pa4IduSFTzA8-1">
          <mxGeometry y="372" width="210" height="26" as="geometry" />
        </mxCell>
        <mxCell id="nL9Xami4pa4IduSFTzA8-14" value="- _check_value()" style="text;strokeColor=none;fillColor=none;align=left;verticalAlign=top;spacingLeft=4;spacingRight=4;overflow=hidden;rotatable=0;points=[[0,0.5],[1,0.5]];portConstraint=eastwest;whiteSpace=wrap;html=1;" vertex="1" parent="nL9Xami4pa4IduSFTzA8-1">
          <mxGeometry y="398" width="210" height="26" as="geometry" />
        </mxCell>
        <mxCell id="nL9Xami4pa4IduSFTzA8-15" value="- _show_value()" style="text;strokeColor=none;fillColor=none;align=left;verticalAlign=top;spacingLeft=4;spacingRight=4;overflow=hidden;rotatable=0;points=[[0,0.5],[1,0.5]];portConstraint=eastwest;whiteSpace=wrap;html=1;" vertex="1" parent="nL9Xami4pa4IduSFTzA8-1">
          <mxGeometry y="424" width="210" height="26" as="geometry" />
        </mxCell>
        <mxCell id="nL9Xami4pa4IduSFTzA8-16" value="- _create_formula()" style="text;strokeColor=none;fillColor=none;align=left;verticalAlign=top;spacingLeft=4;spacingRight=4;overflow=hidden;rotatable=0;points=[[0,0.5],[1,0.5]];portConstraint=eastwest;whiteSpace=wrap;html=1;" vertex="1" parent="nL9Xami4pa4IduSFTzA8-1">
          <mxGeometry y="450" width="210" height="26" as="geometry" />
        </mxCell>
        <mxCell id="nL9Xami4pa4IduSFTzA8-17" value="- _add_formula()" style="text;strokeColor=none;fillColor=none;align=left;verticalAlign=top;spacingLeft=4;spacingRight=4;overflow=hidden;rotatable=0;points=[[0,0.5],[1,0.5]];portConstraint=eastwest;whiteSpace=wrap;html=1;" vertex="1" parent="nL9Xami4pa4IduSFTzA8-1">
          <mxGeometry y="476" width="210" height="26" as="geometry" />
        </mxCell>
        <mxCell id="nL9Xami4pa4IduSFTzA8-21" value="- _glance_down_from()" style="text;strokeColor=none;fillColor=none;align=left;verticalAlign=top;spacingLeft=4;spacingRight=4;overflow=hidden;rotatable=0;points=[[0,0.5],[1,0.5]];portConstraint=eastwest;whiteSpace=wrap;html=1;" vertex="1" parent="nL9Xami4pa4IduSFTzA8-1">
          <mxGeometry y="502" width="210" height="26" as="geometry" />
        </mxCell>
        <mxCell id="nL9Xami4pa4IduSFTzA8-23" value="- _check_down_from()" style="text;strokeColor=none;fillColor=none;align=left;verticalAlign=top;spacingLeft=4;spacingRight=4;overflow=hidden;rotatable=0;points=[[0,0.5],[1,0.5]];portConstraint=eastwest;whiteSpace=wrap;html=1;" vertex="1" parent="nL9Xami4pa4IduSFTzA8-1">
          <mxGeometry y="528" width="210" height="26" as="geometry" />
        </mxCell>
        <mxCell id="nL9Xami4pa4IduSFTzA8-22" value="- _check_right_of()" style="text;strokeColor=none;fillColor=none;align=left;verticalAlign=top;spacingLeft=4;spacingRight=4;overflow=hidden;rotatable=0;points=[[0,0.5],[1,0.5]];portConstraint=eastwest;whiteSpace=wrap;html=1;" vertex="1" parent="nL9Xami4pa4IduSFTzA8-1">
          <mxGeometry y="554" width="210" height="26" as="geometry" />
        </mxCell>
        <mxCell id="nL9Xami4pa4IduSFTzA8-25" value="CompGraph" style="swimlane;fontStyle=1;align=center;verticalAlign=top;childLayout=stackLayout;horizontal=1;startSize=26;horizontalStack=0;resizeParent=1;resizeParentMax=0;resizeLast=0;collapsible=1;marginBottom=0;whiteSpace=wrap;html=1;" vertex="1" parent="1">
          <mxGeometry x="320" y="40" width="210" height="580" as="geometry" />
        </mxCell>
        <mxCell id="nL9Xami4pa4IduSFTzA8-55" value="+ dict_valid_operators: dict" style="text;strokeColor=none;fillColor=none;align=left;verticalAlign=top;spacingLeft=4;spacingRight=4;overflow=hidden;rotatable=0;points=[[0,0.5],[1,0.5]];portConstraint=eastwest;whiteSpace=wrap;html=1;" vertex="1" parent="nL9Xami4pa4IduSFTzA8-25">
          <mxGeometry y="26" width="210" height="26" as="geometry" />
        </mxCell>
        <mxCell id="tsSUIs2DUGKRYO6i77nD-29" value="+ dict_invalid_operators: dict" style="text;strokeColor=none;fillColor=none;align=left;verticalAlign=top;spacingLeft=4;spacingRight=4;overflow=hidden;rotatable=0;points=[[0,0.5],[1,0.5]];portConstraint=eastwest;whiteSpace=wrap;html=1;" vertex="1" parent="nL9Xami4pa4IduSFTzA8-25">
          <mxGeometry y="52" width="210" height="26" as="geometry" />
        </mxCell>
        <mxCell id="nL9Xami4pa4IduSFTzA8-56" value="+ dict_connectors: dict" style="text;strokeColor=none;fillColor=none;align=left;verticalAlign=top;spacingLeft=4;spacingRight=4;overflow=hidden;rotatable=0;points=[[0,0.5],[1,0.5]];portConstraint=eastwest;whiteSpace=wrap;html=1;" vertex="1" parent="nL9Xami4pa4IduSFTzA8-25">
          <mxGeometry y="78" width="210" height="26" as="geometry" />
        </mxCell>
        <mxCell id="nL9Xami4pa4IduSFTzA8-26" value="+ file_name: str" style="text;strokeColor=none;fillColor=none;align=left;verticalAlign=top;spacingLeft=4;spacingRight=4;overflow=hidden;rotatable=0;points=[[0,0.5],[1,0.5]];portConstraint=eastwest;whiteSpace=wrap;html=1;" vertex="1" parent="nL9Xami4pa4IduSFTzA8-25">
          <mxGeometry y="104" width="210" height="26" as="geometry" />
        </mxCell>
        <mxCell id="nL9Xami4pa4IduSFTzA8-27" value="+ sheet_name: str" style="text;strokeColor=none;fillColor=none;align=left;verticalAlign=top;spacingLeft=4;spacingRight=4;overflow=hidden;rotatable=0;points=[[0,0.5],[1,0.5]];portConstraint=eastwest;whiteSpace=wrap;html=1;" vertex="1" parent="nL9Xami4pa4IduSFTzA8-25">
          <mxGeometry y="130" width="210" height="26" as="geometry" />
        </mxCell>
        <mxCell id="nL9Xami4pa4IduSFTzA8-50" value="+ header: int" style="text;strokeColor=none;fillColor=none;align=left;verticalAlign=top;spacingLeft=4;spacingRight=4;overflow=hidden;rotatable=0;points=[[0,0.5],[1,0.5]];portConstraint=eastwest;whiteSpace=wrap;html=1;" vertex="1" parent="nL9Xami4pa4IduSFTzA8-25">
          <mxGeometry y="156" width="210" height="26" as="geometry" />
        </mxCell>
        <mxCell id="nL9Xami4pa4IduSFTzA8-49" value="+ usecols: int[]" style="text;strokeColor=none;fillColor=none;align=left;verticalAlign=top;spacingLeft=4;spacingRight=4;overflow=hidden;rotatable=0;points=[[0,0.5],[1,0.5]];portConstraint=eastwest;whiteSpace=wrap;html=1;" vertex="1" parent="nL9Xami4pa4IduSFTzA8-25">
          <mxGeometry y="182" width="210" height="26" as="geometry" />
        </mxCell>
        <mxCell id="nL9Xami4pa4IduSFTzA8-48" value="+ index_col: int" style="text;strokeColor=none;fillColor=none;align=left;verticalAlign=top;spacingLeft=4;spacingRight=4;overflow=hidden;rotatable=0;points=[[0,0.5],[1,0.5]];portConstraint=eastwest;whiteSpace=wrap;html=1;" vertex="1" parent="nL9Xami4pa4IduSFTzA8-25">
          <mxGeometry y="208" width="210" height="26" as="geometry" />
        </mxCell>
        <mxCell id="nL9Xami4pa4IduSFTzA8-53" value="+ io_params: dict" style="text;strokeColor=none;fillColor=none;align=left;verticalAlign=top;spacingLeft=4;spacingRight=4;overflow=hidden;rotatable=0;points=[[0,0.5],[1,0.5]];portConstraint=eastwest;whiteSpace=wrap;html=1;" vertex="1" parent="nL9Xami4pa4IduSFTzA8-25">
          <mxGeometry y="234" width="210" height="26" as="geometry" />
        </mxCell>
        <mxCell id="nL9Xami4pa4IduSFTzA8-54" value="+ io_params: dict" style="text;strokeColor=none;fillColor=none;align=left;verticalAlign=top;spacingLeft=4;spacingRight=4;overflow=hidden;rotatable=0;points=[[0,0.5],[1,0.5]];portConstraint=eastwest;whiteSpace=wrap;html=1;" vertex="1" parent="nL9Xami4pa4IduSFTzA8-25">
          <mxGeometry y="260" width="210" height="26" as="geometry" />
        </mxCell>
        <mxCell id="nL9Xami4pa4IduSFTzA8-29" value="+ debugMode: bool" style="text;strokeColor=none;fillColor=none;align=left;verticalAlign=top;spacingLeft=4;spacingRight=4;overflow=hidden;rotatable=0;points=[[0,0.5],[1,0.5]];portConstraint=eastwest;whiteSpace=wrap;html=1;" vertex="1" parent="nL9Xami4pa4IduSFTzA8-25">
          <mxGeometry y="286" width="210" height="26" as="geometry" />
        </mxCell>
        <mxCell id="nL9Xami4pa4IduSFTzA8-28" value="+ _config_file_path: str" style="text;strokeColor=none;fillColor=none;align=left;verticalAlign=top;spacingLeft=4;spacingRight=4;overflow=hidden;rotatable=0;points=[[0,0.5],[1,0.5]];portConstraint=eastwest;whiteSpace=wrap;html=1;" vertex="1" parent="nL9Xami4pa4IduSFTzA8-25">
          <mxGeometry y="312" width="210" height="26" as="geometry" />
        </mxCell>
        <mxCell id="nL9Xami4pa4IduSFTzA8-51" value="+ _param_type_def_file_path: str" style="text;strokeColor=none;fillColor=none;align=left;verticalAlign=top;spacingLeft=4;spacingRight=4;overflow=hidden;rotatable=0;points=[[0,0.5],[1,0.5]];portConstraint=eastwest;whiteSpace=wrap;html=1;" vertex="1" parent="nL9Xami4pa4IduSFTzA8-25">
          <mxGeometry y="338" width="210" height="26" as="geometry" />
        </mxCell>
        <mxCell id="nL9Xami4pa4IduSFTzA8-52" value="+ _param_type_section_name: str" style="text;strokeColor=none;fillColor=none;align=left;verticalAlign=top;spacingLeft=4;spacingRight=4;overflow=hidden;rotatable=0;points=[[0,0.5],[1,0.5]];portConstraint=eastwest;whiteSpace=wrap;html=1;" vertex="1" parent="nL9Xami4pa4IduSFTzA8-25">
          <mxGeometry y="364" width="210" height="26" as="geometry" />
        </mxCell>
        <mxCell id="nL9Xami4pa4IduSFTzA8-30" value="" style="line;strokeWidth=1;fillColor=none;align=left;verticalAlign=middle;spacingTop=-1;spacingLeft=3;spacingRight=3;rotatable=0;labelPosition=right;points=[];portConstraint=eastwest;strokeColor=inherit;" vertex="1" parent="nL9Xami4pa4IduSFTzA8-25">
          <mxGeometry y="390" width="210" height="8" as="geometry" />
        </mxCell>
        <mxCell id="nL9Xami4pa4IduSFTzA8-31" value="+ __init__()" style="text;strokeColor=none;fillColor=none;align=left;verticalAlign=top;spacingLeft=4;spacingRight=4;overflow=hidden;rotatable=0;points=[[0,0.5],[1,0.5]];portConstraint=eastwest;whiteSpace=wrap;html=1;" vertex="1" parent="nL9Xami4pa4IduSFTzA8-25">
          <mxGeometry y="398" width="210" height="26" as="geometry" />
        </mxCell>
        <mxCell id="nL9Xami4pa4IduSFTzA8-32" value="+ update()" style="text;strokeColor=none;fillColor=none;align=left;verticalAlign=top;spacingLeft=4;spacingRight=4;overflow=hidden;rotatable=0;points=[[0,0.5],[1,0.5]];portConstraint=eastwest;whiteSpace=wrap;html=1;" vertex="1" parent="nL9Xami4pa4IduSFTzA8-25">
          <mxGeometry y="424" width="210" height="26" as="geometry" />
        </mxCell>
        <mxCell id="nL9Xami4pa4IduSFTzA8-33" value="+ graph_to_formula()" style="text;strokeColor=none;fillColor=none;align=left;verticalAlign=top;spacingLeft=4;spacingRight=4;overflow=hidden;rotatable=0;points=[[0,0.5],[1,0.5]];portConstraint=eastwest;whiteSpace=wrap;html=1;" vertex="1" parent="nL9Xami4pa4IduSFTzA8-25">
          <mxGeometry y="450" width="210" height="26" as="geometry" />
        </mxCell>
        <mxCell id="nL9Xami4pa4IduSFTzA8-37" value="- _is_operator()" style="text;strokeColor=none;fillColor=none;align=left;verticalAlign=top;spacingLeft=4;spacingRight=4;overflow=hidden;rotatable=0;points=[[0,0.5],[1,0.5]];portConstraint=eastwest;whiteSpace=wrap;html=1;" vertex="1" parent="nL9Xami4pa4IduSFTzA8-25">
          <mxGeometry y="476" width="210" height="26" as="geometry" />
        </mxCell>
        <mxCell id="nL9Xami4pa4IduSFTzA8-38" value="- _is_connector()" style="text;strokeColor=none;fillColor=none;align=left;verticalAlign=top;spacingLeft=4;spacingRight=4;overflow=hidden;rotatable=0;points=[[0,0.5],[1,0.5]];portConstraint=eastwest;whiteSpace=wrap;html=1;" vertex="1" parent="nL9Xami4pa4IduSFTzA8-25">
          <mxGeometry y="502" width="210" height="26" as="geometry" />
        </mxCell>
        <mxCell id="nL9Xami4pa4IduSFTzA8-39" value="- _process_operator()" style="text;strokeColor=none;fillColor=none;align=left;verticalAlign=top;spacingLeft=4;spacingRight=4;overflow=hidden;rotatable=0;points=[[0,0.5],[1,0.5]];portConstraint=eastwest;whiteSpace=wrap;html=1;" vertex="1" parent="nL9Xami4pa4IduSFTzA8-25">
          <mxGeometry y="528" width="210" height="26" as="geometry" />
        </mxCell>
        <mxCell id="nL9Xami4pa4IduSFTzA8-40" value="- _process_connector()" style="text;strokeColor=none;fillColor=none;align=left;verticalAlign=top;spacingLeft=4;spacingRight=4;overflow=hidden;rotatable=0;points=[[0,0.5],[1,0.5]];portConstraint=eastwest;whiteSpace=wrap;html=1;" vertex="1" parent="nL9Xami4pa4IduSFTzA8-25">
          <mxGeometry y="554" width="210" height="26" as="geometry" />
        </mxCell>
        <mxCell id="nL9Xami4pa4IduSFTzA8-57" style="edgeStyle=orthogonalEdgeStyle;rounded=1;orthogonalLoop=1;jettySize=auto;html=1;curved=0;jumpStyle=arc;endArrow=block;endFill=0;" edge="1" parent="1" source="nL9Xami4pa4IduSFTzA8-25" target="nL9Xami4pa4IduSFTzA8-1">
          <mxGeometry relative="1" as="geometry" />
        </mxCell>
        <mxCell id="tsSUIs2DUGKRYO6i77nD-1" style="rounded=0;orthogonalLoop=1;jettySize=auto;html=1;" edge="1" parent="1" source="nL9Xami4pa4IduSFTzA8-58" target="Liv4-RoVnS2HabwxiWHU-2">
          <mxGeometry relative="1" as="geometry" />
        </mxCell>
        <mxCell id="tsSUIs2DUGKRYO6i77nD-3" style="edgeStyle=none;shape=connector;rounded=0;orthogonalLoop=1;jettySize=auto;html=1;strokeColor=default;align=center;verticalAlign=middle;fontFamily=Helvetica;fontSize=11;fontColor=default;labelBackgroundColor=default;endArrow=classic;" edge="1" parent="1" source="nL9Xami4pa4IduSFTzA8-58" target="tsSUIs2DUGKRYO6i77nD-2">
          <mxGeometry relative="1" as="geometry" />
        </mxCell>
        <mxCell id="nL9Xami4pa4IduSFTzA8-58" value="graph_to_formula" style="rounded=0;whiteSpace=wrap;html=1;" vertex="1" parent="1">
          <mxGeometry x="40" y="680" width="120" height="60" as="geometry" />
        </mxCell>
        <mxCell id="Liv4-RoVnS2HabwxiWHU-1" value="formulas_in_list" style="rounded=0;whiteSpace=wrap;html=1;" vertex="1" parent="1">
          <mxGeometry x="-200" y="680" width="120" height="60" as="geometry" />
        </mxCell>
        <mxCell id="Liv4-RoVnS2HabwxiWHU-2" value="formulas_in_dict" style="rounded=0;whiteSpace=wrap;html=1;" vertex="1" parent="1">
          <mxGeometry x="-200" y="760" width="120" height="60" as="geometry" />
        </mxCell>
        <mxCell id="Liv4-RoVnS2HabwxiWHU-3" style="rounded=0;orthogonalLoop=1;jettySize=auto;html=1;" edge="1" parent="1" source="nL9Xami4pa4IduSFTzA8-58" target="Liv4-RoVnS2HabwxiWHU-1">
          <mxGeometry relative="1" as="geometry" />
        </mxCell>
        <mxCell id="tsSUIs2DUGKRYO6i77nD-16" style="edgeStyle=orthogonalEdgeStyle;shape=connector;curved=0;rounded=1;jumpStyle=arc;orthogonalLoop=1;jettySize=auto;html=1;strokeColor=default;align=center;verticalAlign=middle;fontFamily=Helvetica;fontSize=11;fontColor=default;labelBackgroundColor=default;endArrow=classic;" edge="1" parent="1" source="tsSUIs2DUGKRYO6i77nD-2" target="tsSUIs2DUGKRYO6i77nD-10">
          <mxGeometry relative="1" as="geometry">
            <Array as="points">
              <mxPoint x="380" y="790" />
              <mxPoint x="380" y="870" />
            </Array>
          </mxGeometry>
        </mxCell>
        <mxCell id="tsSUIs2DUGKRYO6i77nD-17" style="edgeStyle=orthogonalEdgeStyle;shape=connector;curved=0;rounded=1;jumpStyle=arc;orthogonalLoop=1;jettySize=auto;html=1;strokeColor=default;align=center;verticalAlign=middle;fontFamily=Helvetica;fontSize=11;fontColor=default;labelBackgroundColor=default;endArrow=classic;" edge="1" parent="1" source="tsSUIs2DUGKRYO6i77nD-2" target="tsSUIs2DUGKRYO6i77nD-12">
          <mxGeometry relative="1" as="geometry">
            <mxPoint x="320" y="850.0000000000002" as="sourcePoint" />
            <mxPoint x="500" y="1240.0000000000002" as="targetPoint" />
            <Array as="points">
              <mxPoint x="380" y="790" />
              <mxPoint x="380" y="1110" />
            </Array>
          </mxGeometry>
        </mxCell>
        <mxCell id="tsSUIs2DUGKRYO6i77nD-18" style="edgeStyle=orthogonalEdgeStyle;shape=connector;curved=0;rounded=1;jumpStyle=arc;orthogonalLoop=1;jettySize=auto;html=1;strokeColor=default;align=center;verticalAlign=middle;fontFamily=Helvetica;fontSize=11;fontColor=default;labelBackgroundColor=default;endArrow=classic;" edge="1" parent="1" target="tsSUIs2DUGKRYO6i77nD-11">
          <mxGeometry relative="1" as="geometry">
            <mxPoint x="320" y="790.0000000000002" as="sourcePoint" />
            <mxPoint x="440" y="970.0000000000002" as="targetPoint" />
            <Array as="points">
              <mxPoint x="380" y="790" />
              <mxPoint x="380" y="990" />
            </Array>
          </mxGeometry>
        </mxCell>
        <mxCell id="tsSUIs2DUGKRYO6i77nD-27" style="edgeStyle=orthogonalEdgeStyle;shape=connector;curved=0;rounded=1;jumpStyle=arc;orthogonalLoop=1;jettySize=auto;html=1;strokeColor=default;align=center;verticalAlign=middle;fontFamily=Helvetica;fontSize=11;fontColor=default;labelBackgroundColor=default;endArrow=classic;" edge="1" parent="1" source="tsSUIs2DUGKRYO6i77nD-2" target="tsSUIs2DUGKRYO6i77nD-8">
          <mxGeometry relative="1" as="geometry">
            <Array as="points">
              <mxPoint x="380" y="790" />
              <mxPoint x="380" y="1310" />
            </Array>
          </mxGeometry>
        </mxCell>
        <mxCell id="tsSUIs2DUGKRYO6i77nD-2" value="_read_cell" style="rounded=0;whiteSpace=wrap;html=1;" vertex="1" parent="1">
          <mxGeometry x="200" y="760" width="120" height="60" as="geometry" />
        </mxCell>
        <mxCell id="tsSUIs2DUGKRYO6i77nD-5" value="_check_value&lt;br&gt;(セルの値を&lt;br&gt;確認する&lt;span style=&quot;background-color: initial;&quot;&gt;道具）&lt;/span&gt;" style="rounded=0;whiteSpace=wrap;html=1;" vertex="1" parent="1">
          <mxGeometry x="760" y="840" width="120" height="60" as="geometry" />
        </mxCell>
        <mxCell id="tsSUIs2DUGKRYO6i77nD-8" value="_create_formula" style="rounded=0;whiteSpace=wrap;html=1;" vertex="1" parent="1">
          <mxGeometry x="440" y="1280" width="120" height="60" as="geometry" />
        </mxCell>
        <mxCell id="tsSUIs2DUGKRYO6i77nD-9" value="_add_formula" style="rounded=0;whiteSpace=wrap;html=1;" vertex="1" parent="1">
          <mxGeometry x="440" y="1360" width="120" height="60" as="geometry" />
        </mxCell>
        <mxCell id="tsSUIs2DUGKRYO6i77nD-20" style="edgeStyle=orthogonalEdgeStyle;shape=connector;curved=0;rounded=1;jumpStyle=arc;orthogonalLoop=1;jettySize=auto;html=1;strokeColor=default;align=center;verticalAlign=middle;fontFamily=Helvetica;fontSize=11;fontColor=default;labelBackgroundColor=default;endArrow=classic;" edge="1" parent="1" source="tsSUIs2DUGKRYO6i77nD-10" target="tsSUIs2DUGKRYO6i77nD-2">
          <mxGeometry relative="1" as="geometry">
            <Array as="points">
              <mxPoint x="600" y="870" />
              <mxPoint x="600" y="910" />
              <mxPoint x="160" y="910" />
              <mxPoint x="160" y="790" />
            </Array>
          </mxGeometry>
        </mxCell>
        <mxCell id="tsSUIs2DUGKRYO6i77nD-10" value="_check_down_from" style="rounded=0;whiteSpace=wrap;html=1;" vertex="1" parent="1">
          <mxGeometry x="440" y="840" width="120" height="60" as="geometry" />
        </mxCell>
        <mxCell id="tsSUIs2DUGKRYO6i77nD-19" style="edgeStyle=orthogonalEdgeStyle;shape=connector;curved=0;rounded=1;jumpStyle=arc;orthogonalLoop=1;jettySize=auto;html=1;strokeColor=default;align=center;verticalAlign=middle;fontFamily=Helvetica;fontSize=11;fontColor=default;labelBackgroundColor=default;endArrow=classic;" edge="1" parent="1" source="tsSUIs2DUGKRYO6i77nD-11" target="tsSUIs2DUGKRYO6i77nD-2">
          <mxGeometry relative="1" as="geometry">
            <Array as="points">
              <mxPoint x="600" y="990" />
              <mxPoint x="600" y="1030" />
              <mxPoint x="160" y="1030" />
              <mxPoint x="160" y="790" />
            </Array>
          </mxGeometry>
        </mxCell>
        <mxCell id="tsSUIs2DUGKRYO6i77nD-11" value="_check_right_of" style="rounded=0;whiteSpace=wrap;html=1;" vertex="1" parent="1">
          <mxGeometry x="440" y="960" width="120" height="60" as="geometry" />
        </mxCell>
        <mxCell id="tsSUIs2DUGKRYO6i77nD-12" value="_glance_down_from" style="rounded=0;whiteSpace=wrap;html=1;" vertex="1" parent="1">
          <mxGeometry x="440" y="1080" width="120" height="60" as="geometry" />
        </mxCell>
        <mxCell id="tsSUIs2DUGKRYO6i77nD-26" value="_show_value&lt;br&gt;(値を表示する道具)" style="rounded=0;whiteSpace=wrap;html=1;" vertex="1" parent="1">
          <mxGeometry x="760" y="920" width="120" height="60" as="geometry" />
        </mxCell>
        <mxCell id="tsSUIs2DUGKRYO6i77nD-28" style="edgeStyle=orthogonalEdgeStyle;shape=connector;curved=0;rounded=1;jumpStyle=arc;orthogonalLoop=1;jettySize=auto;html=1;strokeColor=default;align=center;verticalAlign=middle;fontFamily=Helvetica;fontSize=11;fontColor=default;labelBackgroundColor=default;endArrow=classic;" edge="1" parent="1" source="tsSUIs2DUGKRYO6i77nD-2" target="tsSUIs2DUGKRYO6i77nD-9">
          <mxGeometry relative="1" as="geometry">
            <mxPoint x="330" y="800" as="sourcePoint" />
            <mxPoint x="450" y="1320" as="targetPoint" />
            <Array as="points">
              <mxPoint x="380" y="790" />
              <mxPoint x="380" y="1390" />
            </Array>
          </mxGeometry>
        </mxCell>
      </root>
    </mxGraphModel>
  </diagram>
</mxfile>
